<?xml version="1.0" standalone="no"?><!DOCTYPE svg PUBLIC "-//W3C//DTD SVG 1.1//EN" "http://www.w3.org/Graphics/SVG/1.1/DTD/svg11.dtd"><svg class="icon" width="200px" height="200.00px" viewBox="0 0 1024 1024" version="1.1" xmlns="http://www.w3.org/2000/svg"><path fill="#616161" d="M513 959.3c-60.4 0-119-11.8-174.2-35.2-53.3-22.5-101.1-54.8-142.2-95.9-41.1-41.1-73.4-88.9-95.9-142.2-23.3-55.2-35.2-113.8-35.2-174.2s11.8-119 35.2-174.2c22.5-53.3 54.8-101.1 95.9-142.2 41.1-41.1 88.9-73.4 142.2-95.9C394 76.1 452.6 64.3 513 64.3s119 11.8 174.2 35.2c53.3 22.5 101.1 54.8 142.2 95.9 41.1 41.1 73.4 88.9 95.9 142.2 23.3 55.2 35.2 113.8 35.2 174.2s-11.8 119-35.2 174.2c-22.5 53.3-54.8 101.1-95.9 142.2-41.1 41.1-88.9 73.4-142.2 95.9-55.2 23.4-113.8 35.2-174.2 35.2z m0-839c-52.9 0-104.1 10.3-152.4 30.8C314 170.8 272.1 199 236.2 235c-36 36-64.2 77.8-83.9 124.5-20.4 48.2-30.8 99.5-30.8 152.4s10.3 104.1 30.8 152.4c19.7 46.6 47.9 88.5 83.9 124.5 36 36 77.8 64.2 124.5 83.9 48.2 20.4 99.5 30.8 152.4 30.8s104.1-10.3 152.4-30.8C712.1 853 754 824.8 790 788.8c36-36 64.2-77.8 83.9-124.5 20.4-48.2 30.8-99.5 30.8-152.4s-10.3-104.1-30.8-152.4C854.2 312.9 826 271 790 235c-36-36-77.8-64.2-124.5-83.9-48.4-20.5-99.6-30.8-152.5-30.8z"  /><path fill="#616161" d="M692.8 540.3H543c-32 0-58-26-58-58V332.5c0-15.5 12.5-28 28-28s28 12.5 28 28v141.8c0 5.5 4.5 10 10 10h141.8c15.5 0 28 12.5 28 28s-12.6 28-28 28z"  /></svg>