<?xml version="1.0" standalone="no"?><!DOCTYPE svg PUBLIC "-//W3C//DTD SVG 1.1//EN" "http://www.w3.org/Graphics/SVG/1.1/DTD/svg11.dtd"><svg class="icon" width="200px" height="200.00px" viewBox="0 0 1024 1024" version="1.1" xmlns="http://www.w3.org/2000/svg"><path fill="#616161" d="M891.6 946.8H134.4c-37.2 0-67.4-30.2-67.4-67.4 0-55.1 21.6-107 60.8-146.2s91.1-60.8 146.2-60.8c30.1 0 57.9-13.6 76.3-37.4l19.9-25.7c5.6-7.2 8.6-16.3 8.5-25.4-0.2-15.8-6.3-30.6-17-41.7-38.7-39.8-60.1-92.1-60.1-147.2v-107c0-56.3 22-109.3 62.1-149.3S456.7 76.7 513 76.7s109.3 22 149.3 62.1 62.1 93.1 62.1 149.3v107c0 55.2-21.3 107.5-60.1 147.3-10.8 11-16.8 25.8-17 41.6-0.1 9.2 2.9 18.2 8.5 25.4l19.9 25.7c18.2 23.4 46.7 37.4 76.3 37.4h0c55.1 0 107 21.6 146.2 60.8S959 824.4 959 879.5C959 916.6 928.8 946.8 891.6 946.8zM513 132.7c-41.3 0-80.3 16.2-109.7 45.7-29.5 29.5-45.7 68.4-45.7 109.7v107c0 40.5 15.7 78.9 44.2 108.2 20.8 21.4 32.5 49.8 32.9 80 0.3 21.8-6.9 43.3-20.3 60.5l-19.9 25.7c-14.2 18.3-32.7 33.3-53.4 43.5s-44 15.6-67.1 15.6c-40.1 0-78 15.8-106.6 44.4-28.6 28.6-44.4 66.5-44.4 106.6 0 6.3 5.1 11.4 11.4 11.4h757.2c6.3 0 11.4-5.1 11.4-11.4 0-40.1-15.8-78-44.4-106.6-28.6-28.6-66.5-44.4-106.6-44.4-23.1 0-46.4-5.4-67.1-15.6s-39.3-25.2-53.4-43.5l-19.9-25.7c-13.4-17.2-20.6-38.7-20.3-60.5 0.4-30.2 12.1-58.6 32.9-79.9 28.5-29.3 44.2-67.7 44.2-108.2v-107c0-41.3-16.2-80.3-45.7-109.7C593.3 149 554.3 132.7 513 132.7z"  /></svg>