<?xml version="1.0" standalone="no"?><!DOCTYPE svg PUBLIC "-//W3C//DTD SVG 1.1//EN" "http://www.w3.org/Graphics/SVG/1.1/DTD/svg11.dtd"><svg class="icon" width="200px" height="200.00px" viewBox="0 0 1024 1024" version="1.1" xmlns="http://www.w3.org/2000/svg"><path fill="#616161" d="M96.6 915c-10.9-10.9-10.9-28.7 0-39.6L887 85c10.9-10.9 28.7-10.9 39.6 0 10.9 10.9 10.9 28.7 0 39.6L136.2 915c-10.9 10.9-28.6 10.9-39.6 0z"  /><path fill="#616161" d="M887 915L96.6 124.6c-10.9-10.9-10.9-28.7 0-39.6 10.9-10.9 28.7-10.9 39.6 0l790.4 790.4c10.9 10.9 10.9 28.7 0 39.6-10.9 10.9-28.6 10.9-39.6 0z"  /></svg>